<mxfile host="app.diagrams.net" modified="2020-09-19T05:42:27.056Z" agent="5.0 (Windows NT 10.0; Win64; x64) AppleWebKit/537.36 (KHTML, like Gecko) Chrome/85.0.4183.102 Safari/537.36" etag="3aVWU7xzLtwAs6gGcNQ4" version="13.7.3" type="github">
  <diagram id="6fZ9IS_zp8AbdrtCW6Z4" name="Page-1">
    <mxGraphModel dx="1193" dy="482" grid="1" gridSize="10" guides="1" tooltips="1" connect="1" arrows="1" fold="1" page="1" pageScale="1" pageWidth="827" pageHeight="1169" math="0" shadow="0">
      <root>
        <mxCell id="0" />
        <mxCell id="1" parent="0" />
        <mxCell id="MeInf1mxyeWhPg3iEfPD-83" style="edgeStyle=orthogonalEdgeStyle;rounded=0;orthogonalLoop=1;jettySize=auto;html=1;exitX=1;exitY=0.5;exitDx=0;exitDy=0;" edge="1" parent="1" source="MeInf1mxyeWhPg3iEfPD-1" target="MeInf1mxyeWhPg3iEfPD-2">
          <mxGeometry relative="1" as="geometry" />
        </mxCell>
        <mxCell id="MeInf1mxyeWhPg3iEfPD-1" value="Inicio" style="ellipse;whiteSpace=wrap;html=1;aspect=fixed;" vertex="1" parent="1">
          <mxGeometry y="220" width="80" height="80" as="geometry" />
        </mxCell>
        <mxCell id="MeInf1mxyeWhPg3iEfPD-84" style="edgeStyle=orthogonalEdgeStyle;rounded=0;orthogonalLoop=1;jettySize=auto;html=1;exitX=1;exitY=0;exitDx=0;exitDy=0;entryX=0;entryY=0.5;entryDx=0;entryDy=0;" edge="1" parent="1" source="MeInf1mxyeWhPg3iEfPD-2" target="MeInf1mxyeWhPg3iEfPD-3">
          <mxGeometry relative="1" as="geometry" />
        </mxCell>
        <mxCell id="MeInf1mxyeWhPg3iEfPD-85" style="edgeStyle=orthogonalEdgeStyle;rounded=0;orthogonalLoop=1;jettySize=auto;html=1;exitX=1;exitY=1;exitDx=0;exitDy=0;entryX=0;entryY=0.5;entryDx=0;entryDy=0;" edge="1" parent="1" source="MeInf1mxyeWhPg3iEfPD-2" target="MeInf1mxyeWhPg3iEfPD-4">
          <mxGeometry relative="1" as="geometry" />
        </mxCell>
        <mxCell id="MeInf1mxyeWhPg3iEfPD-2" value="&lt;font style=&quot;font-size: 36px&quot;&gt;A&lt;/font&gt;" style="ellipse;whiteSpace=wrap;html=1;aspect=fixed;" vertex="1" parent="1">
          <mxGeometry x="120" y="220" width="80" height="80" as="geometry" />
        </mxCell>
        <mxCell id="MeInf1mxyeWhPg3iEfPD-94" style="edgeStyle=orthogonalEdgeStyle;rounded=0;orthogonalLoop=1;jettySize=auto;html=1;exitX=1;exitY=0.5;exitDx=0;exitDy=0;" edge="1" parent="1" source="MeInf1mxyeWhPg3iEfPD-3" target="MeInf1mxyeWhPg3iEfPD-6">
          <mxGeometry relative="1" as="geometry" />
        </mxCell>
        <mxCell id="MeInf1mxyeWhPg3iEfPD-3" value="&lt;font style=&quot;font-size: 36px&quot;&gt;B&lt;/font&gt;" style="ellipse;whiteSpace=wrap;html=1;aspect=fixed;" vertex="1" parent="1">
          <mxGeometry x="240" y="120" width="80" height="80" as="geometry" />
        </mxCell>
        <mxCell id="MeInf1mxyeWhPg3iEfPD-86" style="edgeStyle=orthogonalEdgeStyle;rounded=0;orthogonalLoop=1;jettySize=auto;html=1;exitX=1;exitY=0.5;exitDx=0;exitDy=0;entryX=0;entryY=0.5;entryDx=0;entryDy=0;" edge="1" parent="1" source="MeInf1mxyeWhPg3iEfPD-4" target="MeInf1mxyeWhPg3iEfPD-5">
          <mxGeometry relative="1" as="geometry" />
        </mxCell>
        <mxCell id="MeInf1mxyeWhPg3iEfPD-4" value="&lt;font style=&quot;font-size: 36px&quot;&gt;C&lt;/font&gt;" style="ellipse;whiteSpace=wrap;html=1;aspect=fixed;" vertex="1" parent="1">
          <mxGeometry x="240" y="370" width="80" height="80" as="geometry" />
        </mxCell>
        <mxCell id="MeInf1mxyeWhPg3iEfPD-87" style="edgeStyle=orthogonalEdgeStyle;rounded=0;orthogonalLoop=1;jettySize=auto;html=1;exitX=1;exitY=0.5;exitDx=0;exitDy=0;entryX=0;entryY=0.5;entryDx=0;entryDy=0;" edge="1" parent="1" source="MeInf1mxyeWhPg3iEfPD-5" target="MeInf1mxyeWhPg3iEfPD-7">
          <mxGeometry relative="1" as="geometry" />
        </mxCell>
        <mxCell id="MeInf1mxyeWhPg3iEfPD-93" style="edgeStyle=orthogonalEdgeStyle;rounded=0;orthogonalLoop=1;jettySize=auto;html=1;exitX=0.5;exitY=0;exitDx=0;exitDy=0;entryX=1;entryY=1;entryDx=0;entryDy=0;" edge="1" parent="1" source="MeInf1mxyeWhPg3iEfPD-5" target="MeInf1mxyeWhPg3iEfPD-6">
          <mxGeometry relative="1" as="geometry">
            <Array as="points">
              <mxPoint x="500" y="370" />
              <mxPoint x="500" y="188" />
            </Array>
          </mxGeometry>
        </mxCell>
        <mxCell id="MeInf1mxyeWhPg3iEfPD-5" value="&lt;font style=&quot;font-size: 36px&quot;&gt;D&lt;/font&gt;" style="ellipse;whiteSpace=wrap;html=1;aspect=fixed;" vertex="1" parent="1">
          <mxGeometry x="400" y="370" width="80" height="80" as="geometry" />
        </mxCell>
        <mxCell id="MeInf1mxyeWhPg3iEfPD-92" style="edgeStyle=orthogonalEdgeStyle;rounded=0;orthogonalLoop=1;jettySize=auto;html=1;exitX=1;exitY=0.5;exitDx=0;exitDy=0;entryX=0;entryY=0.5;entryDx=0;entryDy=0;" edge="1" parent="1" source="MeInf1mxyeWhPg3iEfPD-6" target="MeInf1mxyeWhPg3iEfPD-8">
          <mxGeometry relative="1" as="geometry">
            <Array as="points">
              <mxPoint x="500" y="160" />
              <mxPoint x="500" y="160" />
            </Array>
          </mxGeometry>
        </mxCell>
        <mxCell id="MeInf1mxyeWhPg3iEfPD-6" value="&lt;font style=&quot;font-size: 36px&quot;&gt;E&lt;/font&gt;" style="ellipse;whiteSpace=wrap;html=1;aspect=fixed;" vertex="1" parent="1">
          <mxGeometry x="400" y="120" width="80" height="80" as="geometry" />
        </mxCell>
        <mxCell id="MeInf1mxyeWhPg3iEfPD-90" style="edgeStyle=orthogonalEdgeStyle;rounded=0;orthogonalLoop=1;jettySize=auto;html=1;exitX=0.5;exitY=0;exitDx=0;exitDy=0;entryX=1;entryY=0.5;entryDx=0;entryDy=0;" edge="1" parent="1" source="MeInf1mxyeWhPg3iEfPD-7" target="MeInf1mxyeWhPg3iEfPD-8">
          <mxGeometry relative="1" as="geometry">
            <Array as="points">
              <mxPoint x="660" y="370" />
              <mxPoint x="660" y="160" />
            </Array>
          </mxGeometry>
        </mxCell>
        <mxCell id="MeInf1mxyeWhPg3iEfPD-7" value="&lt;font style=&quot;font-size: 36px&quot;&gt;F&lt;/font&gt;" style="ellipse;whiteSpace=wrap;html=1;aspect=fixed;" vertex="1" parent="1">
          <mxGeometry x="560" y="370" width="80" height="80" as="geometry" />
        </mxCell>
        <mxCell id="MeInf1mxyeWhPg3iEfPD-91" style="edgeStyle=orthogonalEdgeStyle;rounded=0;orthogonalLoop=1;jettySize=auto;html=1;exitX=1;exitY=0;exitDx=0;exitDy=0;entryX=0;entryY=0.5;entryDx=0;entryDy=0;" edge="1" parent="1" source="MeInf1mxyeWhPg3iEfPD-8" target="MeInf1mxyeWhPg3iEfPD-9">
          <mxGeometry relative="1" as="geometry" />
        </mxCell>
        <mxCell id="MeInf1mxyeWhPg3iEfPD-8" value="&lt;font style=&quot;font-size: 36px&quot;&gt;G&lt;/font&gt;" style="ellipse;whiteSpace=wrap;html=1;aspect=fixed;" vertex="1" parent="1">
          <mxGeometry x="560" y="120" width="80" height="80" as="geometry" />
        </mxCell>
        <mxCell id="MeInf1mxyeWhPg3iEfPD-9" value="FIN" style="ellipse;whiteSpace=wrap;html=1;aspect=fixed;" vertex="1" parent="1">
          <mxGeometry x="720" y="220" width="80" height="80" as="geometry" />
        </mxCell>
        <mxCell id="MeInf1mxyeWhPg3iEfPD-10" value="0" style="text;html=1;strokeColor=none;fillColor=none;align=center;verticalAlign=middle;whiteSpace=wrap;rounded=0;" vertex="1" parent="1">
          <mxGeometry y="170" width="40" height="20" as="geometry" />
        </mxCell>
        <mxCell id="MeInf1mxyeWhPg3iEfPD-11" value="0" style="text;html=1;strokeColor=none;fillColor=none;align=center;verticalAlign=middle;whiteSpace=wrap;rounded=0;" vertex="1" parent="1">
          <mxGeometry y="130" width="40" height="20" as="geometry" />
        </mxCell>
        <mxCell id="MeInf1mxyeWhPg3iEfPD-12" value="0" style="text;html=1;strokeColor=none;fillColor=none;align=center;verticalAlign=middle;whiteSpace=wrap;rounded=0;" vertex="1" parent="1">
          <mxGeometry x="40" y="170" width="40" height="20" as="geometry" />
        </mxCell>
        <mxCell id="MeInf1mxyeWhPg3iEfPD-13" value="0" style="text;html=1;strokeColor=none;fillColor=none;align=center;verticalAlign=middle;whiteSpace=wrap;rounded=0;" vertex="1" parent="1">
          <mxGeometry x="40" y="130" width="40" height="20" as="geometry" />
        </mxCell>
        <mxCell id="MeInf1mxyeWhPg3iEfPD-14" value="0" style="text;html=1;strokeColor=none;fillColor=none;align=center;verticalAlign=middle;whiteSpace=wrap;rounded=0;" vertex="1" parent="1">
          <mxGeometry x="120" y="170" width="40" height="20" as="geometry" />
        </mxCell>
        <mxCell id="MeInf1mxyeWhPg3iEfPD-15" value="0" style="text;html=1;strokeColor=none;fillColor=none;align=center;verticalAlign=middle;whiteSpace=wrap;rounded=0;" vertex="1" parent="1">
          <mxGeometry x="120" y="130" width="40" height="20" as="geometry" />
        </mxCell>
        <mxCell id="MeInf1mxyeWhPg3iEfPD-16" value="H =" style="text;html=1;strokeColor=#FFFFFF;fillColor=#FF0000;align=center;verticalAlign=middle;whiteSpace=wrap;rounded=0;" vertex="1" parent="1">
          <mxGeometry y="90" width="40" height="20" as="geometry" />
        </mxCell>
        <mxCell id="MeInf1mxyeWhPg3iEfPD-17" value="0" style="text;html=1;strokeColor=#FFFFFF;fillColor=#FF0000;align=center;verticalAlign=middle;whiteSpace=wrap;rounded=0;" vertex="1" parent="1">
          <mxGeometry x="40" y="90" width="40" height="20" as="geometry" />
        </mxCell>
        <mxCell id="MeInf1mxyeWhPg3iEfPD-18" value="H =" style="text;html=1;strokeColor=none;fillColor=#FF0000;align=center;verticalAlign=middle;whiteSpace=wrap;rounded=0;" vertex="1" parent="1">
          <mxGeometry x="120" y="90" width="40" height="20" as="geometry" />
        </mxCell>
        <mxCell id="MeInf1mxyeWhPg3iEfPD-19" value="H =" style="text;html=1;strokeColor=none;fillColor=#FF0000;align=center;verticalAlign=middle;whiteSpace=wrap;rounded=0;" vertex="1" parent="1">
          <mxGeometry x="240" y="10" width="40" height="20" as="geometry" />
        </mxCell>
        <mxCell id="MeInf1mxyeWhPg3iEfPD-20" value="H =" style="text;html=1;strokeColor=none;fillColor=#FF0000;align=center;verticalAlign=middle;whiteSpace=wrap;rounded=0;" vertex="1" parent="1">
          <mxGeometry x="240" y="250" width="40" height="20" as="geometry" />
        </mxCell>
        <mxCell id="MeInf1mxyeWhPg3iEfPD-21" value="H =" style="text;html=1;strokeColor=none;fillColor=#FF0000;align=center;verticalAlign=middle;whiteSpace=wrap;rounded=0;" vertex="1" parent="1">
          <mxGeometry x="400" y="10" width="40" height="20" as="geometry" />
        </mxCell>
        <mxCell id="MeInf1mxyeWhPg3iEfPD-22" value="H =" style="text;html=1;strokeColor=none;fillColor=#FF0000;align=center;verticalAlign=middle;whiteSpace=wrap;rounded=0;" vertex="1" parent="1">
          <mxGeometry x="400" y="250" width="40" height="20" as="geometry" />
        </mxCell>
        <mxCell id="MeInf1mxyeWhPg3iEfPD-23" value="H =" style="text;html=1;strokeColor=none;fillColor=#FF0000;align=center;verticalAlign=middle;whiteSpace=wrap;rounded=0;" vertex="1" parent="1">
          <mxGeometry x="560" y="10" width="40" height="20" as="geometry" />
        </mxCell>
        <mxCell id="MeInf1mxyeWhPg3iEfPD-24" value="H =" style="text;html=1;strokeColor=none;fillColor=#FF0000;align=center;verticalAlign=middle;whiteSpace=wrap;rounded=0;" vertex="1" parent="1">
          <mxGeometry x="560" y="250" width="40" height="20" as="geometry" />
        </mxCell>
        <mxCell id="MeInf1mxyeWhPg3iEfPD-25" value="H =" style="text;html=1;strokeColor=none;fillColor=#FF0000;align=center;verticalAlign=middle;whiteSpace=wrap;rounded=0;" vertex="1" parent="1">
          <mxGeometry x="720" y="90" width="40" height="20" as="geometry" />
        </mxCell>
        <mxCell id="MeInf1mxyeWhPg3iEfPD-26" value="0" style="text;html=1;strokeColor=none;fillColor=#FF0000;align=center;verticalAlign=middle;whiteSpace=wrap;rounded=0;" vertex="1" parent="1">
          <mxGeometry x="160" y="90" width="40" height="20" as="geometry" />
        </mxCell>
        <mxCell id="MeInf1mxyeWhPg3iEfPD-27" value="3" style="text;html=1;strokeColor=none;fillColor=none;align=center;verticalAlign=middle;whiteSpace=wrap;rounded=0;" vertex="1" parent="1">
          <mxGeometry x="160" y="130" width="40" height="20" as="geometry" />
        </mxCell>
        <mxCell id="MeInf1mxyeWhPg3iEfPD-28" value="3" style="text;html=1;strokeColor=none;fillColor=none;align=center;verticalAlign=middle;whiteSpace=wrap;rounded=0;" vertex="1" parent="1">
          <mxGeometry x="160" y="170" width="40" height="20" as="geometry" />
        </mxCell>
        <mxCell id="MeInf1mxyeWhPg3iEfPD-29" value="3" style="text;html=1;strokeColor=none;fillColor=none;align=center;verticalAlign=middle;whiteSpace=wrap;rounded=0;" vertex="1" parent="1">
          <mxGeometry x="240" y="330" width="40" height="20" as="geometry" />
        </mxCell>
        <mxCell id="MeInf1mxyeWhPg3iEfPD-30" value="3" style="text;html=1;strokeColor=none;fillColor=none;align=center;verticalAlign=middle;whiteSpace=wrap;rounded=0;" vertex="1" parent="1">
          <mxGeometry x="240" y="290" width="40" height="20" as="geometry" />
        </mxCell>
        <mxCell id="MeInf1mxyeWhPg3iEfPD-31" value="0" style="text;html=1;strokeColor=none;fillColor=#FF0000;align=center;verticalAlign=middle;whiteSpace=wrap;rounded=0;" vertex="1" parent="1">
          <mxGeometry x="270" y="250" width="40" height="20" as="geometry" />
        </mxCell>
        <mxCell id="MeInf1mxyeWhPg3iEfPD-32" value="3" style="text;html=1;strokeColor=none;fillColor=none;align=center;verticalAlign=middle;whiteSpace=wrap;rounded=0;" vertex="1" parent="1">
          <mxGeometry x="240" y="50" width="40" height="20" as="geometry" />
        </mxCell>
        <mxCell id="MeInf1mxyeWhPg3iEfPD-33" value="6" style="text;html=1;strokeColor=none;fillColor=none;align=center;verticalAlign=middle;whiteSpace=wrap;rounded=0;" vertex="1" parent="1">
          <mxGeometry x="280" y="50" width="40" height="20" as="geometry" />
        </mxCell>
        <mxCell id="MeInf1mxyeWhPg3iEfPD-34" value="9" style="text;html=1;strokeColor=none;fillColor=none;align=center;verticalAlign=middle;whiteSpace=wrap;rounded=0;" vertex="1" parent="1">
          <mxGeometry x="240" y="90" width="40" height="20" as="geometry" />
        </mxCell>
        <mxCell id="MeInf1mxyeWhPg3iEfPD-37" value="12" style="text;html=1;strokeColor=none;fillColor=none;align=center;verticalAlign=middle;whiteSpace=wrap;rounded=0;" vertex="1" parent="1">
          <mxGeometry x="280" y="90" width="40" height="20" as="geometry" />
        </mxCell>
        <mxCell id="MeInf1mxyeWhPg3iEfPD-38" value="10" style="text;html=1;strokeColor=none;fillColor=none;align=center;verticalAlign=middle;whiteSpace=wrap;rounded=0;" vertex="1" parent="1">
          <mxGeometry x="280" y="290" width="40" height="20" as="geometry" />
        </mxCell>
        <mxCell id="MeInf1mxyeWhPg3iEfPD-39" value="10" style="text;html=1;strokeColor=none;fillColor=none;align=center;verticalAlign=middle;whiteSpace=wrap;rounded=0;" vertex="1" parent="1">
          <mxGeometry x="280" y="330" width="40" height="20" as="geometry" />
        </mxCell>
        <mxCell id="MeInf1mxyeWhPg3iEfPD-40" value="6" style="text;html=1;strokeColor=none;fillColor=#FF0000;align=center;verticalAlign=middle;whiteSpace=wrap;rounded=0;" vertex="1" parent="1">
          <mxGeometry x="280" y="10" width="40" height="20" as="geometry" />
        </mxCell>
        <mxCell id="MeInf1mxyeWhPg3iEfPD-41" value="10" style="text;html=1;strokeColor=none;fillColor=none;align=center;verticalAlign=middle;whiteSpace=wrap;rounded=0;" vertex="1" parent="1">
          <mxGeometry x="400" y="330" width="40" height="20" as="geometry" />
        </mxCell>
        <mxCell id="MeInf1mxyeWhPg3iEfPD-42" value="10" style="text;html=1;strokeColor=none;fillColor=none;align=center;verticalAlign=middle;whiteSpace=wrap;rounded=0;" vertex="1" parent="1">
          <mxGeometry x="400" y="290" width="40" height="20" as="geometry" />
        </mxCell>
        <mxCell id="MeInf1mxyeWhPg3iEfPD-43" value="12" style="text;html=1;strokeColor=none;fillColor=none;align=center;verticalAlign=middle;whiteSpace=wrap;rounded=0;" vertex="1" parent="1">
          <mxGeometry x="440" y="330" width="40" height="20" as="geometry" />
        </mxCell>
        <mxCell id="MeInf1mxyeWhPg3iEfPD-44" value="12" style="text;html=1;strokeColor=none;fillColor=none;align=center;verticalAlign=middle;whiteSpace=wrap;rounded=0;" vertex="1" parent="1">
          <mxGeometry x="440" y="290" width="40" height="20" as="geometry" />
        </mxCell>
        <mxCell id="MeInf1mxyeWhPg3iEfPD-45" value="0" style="text;html=1;strokeColor=none;fillColor=#FF0000;align=center;verticalAlign=middle;whiteSpace=wrap;rounded=0;" vertex="1" parent="1">
          <mxGeometry x="440" y="250" width="40" height="20" as="geometry" />
        </mxCell>
        <mxCell id="MeInf1mxyeWhPg3iEfPD-46" value="12" style="text;html=1;strokeColor=none;fillColor=none;align=center;verticalAlign=middle;whiteSpace=wrap;rounded=0;" vertex="1" parent="1">
          <mxGeometry x="400" y="90" width="40" height="20" as="geometry" />
        </mxCell>
        <mxCell id="MeInf1mxyeWhPg3iEfPD-47" value="12" style="text;html=1;strokeColor=none;fillColor=none;align=center;verticalAlign=middle;whiteSpace=wrap;rounded=0;" vertex="1" parent="1">
          <mxGeometry x="400" y="50" width="40" height="20" as="geometry" />
        </mxCell>
        <mxCell id="MeInf1mxyeWhPg3iEfPD-48" value="16" style="text;html=1;strokeColor=none;fillColor=none;align=center;verticalAlign=middle;whiteSpace=wrap;rounded=0;" vertex="1" parent="1">
          <mxGeometry x="440" y="50" width="40" height="20" as="geometry" />
        </mxCell>
        <mxCell id="MeInf1mxyeWhPg3iEfPD-49" value="16" style="text;html=1;strokeColor=none;fillColor=none;align=center;verticalAlign=middle;whiteSpace=wrap;rounded=0;" vertex="1" parent="1">
          <mxGeometry x="440" y="90" width="40" height="20" as="geometry" />
        </mxCell>
        <mxCell id="MeInf1mxyeWhPg3iEfPD-50" value="0" style="text;html=1;strokeColor=none;fillColor=#FF0000;align=center;verticalAlign=middle;whiteSpace=wrap;rounded=0;" vertex="1" parent="1">
          <mxGeometry x="440" y="10" width="40" height="20" as="geometry" />
        </mxCell>
        <mxCell id="MeInf1mxyeWhPg3iEfPD-51" value="12" style="text;html=1;strokeColor=none;fillColor=none;align=center;verticalAlign=middle;whiteSpace=wrap;rounded=0;" vertex="1" parent="1">
          <mxGeometry x="560" y="290" width="40" height="20" as="geometry" />
        </mxCell>
        <mxCell id="MeInf1mxyeWhPg3iEfPD-52" value="13" style="text;html=1;strokeColor=none;fillColor=none;align=center;verticalAlign=middle;whiteSpace=wrap;rounded=0;" vertex="1" parent="1">
          <mxGeometry x="560" y="330" width="40" height="20" as="geometry" />
        </mxCell>
        <mxCell id="MeInf1mxyeWhPg3iEfPD-53" value="15" style="text;html=1;strokeColor=none;fillColor=none;align=center;verticalAlign=middle;whiteSpace=wrap;rounded=0;" vertex="1" parent="1">
          <mxGeometry x="600" y="290" width="40" height="20" as="geometry" />
        </mxCell>
        <mxCell id="MeInf1mxyeWhPg3iEfPD-55" value="16" style="text;html=1;strokeColor=none;fillColor=none;align=center;verticalAlign=middle;whiteSpace=wrap;rounded=0;" vertex="1" parent="1">
          <mxGeometry x="600" y="330" width="40" height="20" as="geometry" />
        </mxCell>
        <mxCell id="MeInf1mxyeWhPg3iEfPD-56" value="1" style="text;html=1;strokeColor=none;fillColor=#FF0000;align=center;verticalAlign=middle;whiteSpace=wrap;rounded=0;" vertex="1" parent="1">
          <mxGeometry x="600" y="250" width="40" height="20" as="geometry" />
        </mxCell>
        <mxCell id="MeInf1mxyeWhPg3iEfPD-57" value="16" style="text;html=1;strokeColor=none;fillColor=none;align=center;verticalAlign=middle;whiteSpace=wrap;rounded=0;" vertex="1" parent="1">
          <mxGeometry x="560" y="90" width="40" height="20" as="geometry" />
        </mxCell>
        <mxCell id="MeInf1mxyeWhPg3iEfPD-58" value="16" style="text;html=1;strokeColor=none;fillColor=none;align=center;verticalAlign=middle;whiteSpace=wrap;rounded=0;" vertex="1" parent="1">
          <mxGeometry x="560" y="50" width="40" height="20" as="geometry" />
        </mxCell>
        <mxCell id="MeInf1mxyeWhPg3iEfPD-59" value="0" style="text;html=1;strokeColor=none;fillColor=#FF0000;align=center;verticalAlign=middle;whiteSpace=wrap;rounded=0;" vertex="1" parent="1">
          <mxGeometry x="600" y="10" width="40" height="20" as="geometry" />
        </mxCell>
        <mxCell id="MeInf1mxyeWhPg3iEfPD-60" value="23" style="text;html=1;strokeColor=none;fillColor=none;align=center;verticalAlign=middle;whiteSpace=wrap;rounded=0;" vertex="1" parent="1">
          <mxGeometry x="600" y="50" width="40" height="20" as="geometry" />
        </mxCell>
        <mxCell id="MeInf1mxyeWhPg3iEfPD-61" value="23" style="text;html=1;strokeColor=none;fillColor=none;align=center;verticalAlign=middle;whiteSpace=wrap;rounded=0;" vertex="1" parent="1">
          <mxGeometry x="600" y="90" width="40" height="20" as="geometry" />
        </mxCell>
        <mxCell id="MeInf1mxyeWhPg3iEfPD-62" value="0" style="text;html=1;strokeColor=none;fillColor=#FF0000;align=center;verticalAlign=middle;whiteSpace=wrap;rounded=0;" vertex="1" parent="1">
          <mxGeometry x="760" y="90" width="40" height="20" as="geometry" />
        </mxCell>
        <mxCell id="MeInf1mxyeWhPg3iEfPD-63" value="23" style="text;html=1;strokeColor=none;fillColor=none;align=center;verticalAlign=middle;whiteSpace=wrap;rounded=0;" vertex="1" parent="1">
          <mxGeometry x="720" y="130" width="40" height="20" as="geometry" />
        </mxCell>
        <mxCell id="MeInf1mxyeWhPg3iEfPD-64" value="23" style="text;html=1;strokeColor=none;fillColor=none;align=center;verticalAlign=middle;whiteSpace=wrap;rounded=0;" vertex="1" parent="1">
          <mxGeometry x="720" y="170" width="40" height="20" as="geometry" />
        </mxCell>
        <mxCell id="MeInf1mxyeWhPg3iEfPD-65" value="23" style="text;html=1;strokeColor=none;fillColor=none;align=center;verticalAlign=middle;whiteSpace=wrap;rounded=0;" vertex="1" parent="1">
          <mxGeometry x="760" y="130" width="40" height="20" as="geometry" />
        </mxCell>
        <mxCell id="MeInf1mxyeWhPg3iEfPD-66" value="23" style="text;html=1;strokeColor=none;fillColor=none;align=center;verticalAlign=middle;whiteSpace=wrap;rounded=0;" vertex="1" parent="1">
          <mxGeometry x="760" y="170" width="40" height="20" as="geometry" />
        </mxCell>
        <mxCell id="MeInf1mxyeWhPg3iEfPD-67" value="0" style="text;html=1;strokeColor=none;fillColor=none;align=center;verticalAlign=middle;whiteSpace=wrap;rounded=0;" vertex="1" parent="1">
          <mxGeometry x="20" y="310" width="40" height="20" as="geometry" />
        </mxCell>
        <mxCell id="MeInf1mxyeWhPg3iEfPD-68" value="3" style="text;html=1;strokeColor=none;fillColor=none;align=center;verticalAlign=middle;whiteSpace=wrap;rounded=0;" vertex="1" parent="1">
          <mxGeometry x="140" y="310" width="40" height="20" as="geometry" />
        </mxCell>
        <mxCell id="MeInf1mxyeWhPg3iEfPD-73" value="7" style="text;html=1;strokeColor=none;fillColor=none;align=center;verticalAlign=middle;whiteSpace=wrap;rounded=0;" vertex="1" parent="1">
          <mxGeometry x="260" y="460" width="40" height="20" as="geometry" />
        </mxCell>
        <mxCell id="MeInf1mxyeWhPg3iEfPD-74" value="3" style="text;html=1;strokeColor=none;fillColor=none;align=center;verticalAlign=middle;whiteSpace=wrap;rounded=0;" vertex="1" parent="1">
          <mxGeometry x="260" y="210" width="40" height="20" as="geometry" />
        </mxCell>
        <mxCell id="MeInf1mxyeWhPg3iEfPD-77" value="2" style="text;html=1;strokeColor=none;fillColor=none;align=center;verticalAlign=middle;whiteSpace=wrap;rounded=0;" vertex="1" parent="1">
          <mxGeometry x="420" y="460" width="40" height="20" as="geometry" />
        </mxCell>
        <mxCell id="MeInf1mxyeWhPg3iEfPD-79" value="4" style="text;html=1;strokeColor=none;fillColor=none;align=center;verticalAlign=middle;whiteSpace=wrap;rounded=0;" vertex="1" parent="1">
          <mxGeometry x="420" y="210" width="40" height="20" as="geometry" />
        </mxCell>
        <mxCell id="MeInf1mxyeWhPg3iEfPD-80" value="3" style="text;html=1;strokeColor=none;fillColor=none;align=center;verticalAlign=middle;whiteSpace=wrap;rounded=0;" vertex="1" parent="1">
          <mxGeometry x="580" y="460" width="40" height="20" as="geometry" />
        </mxCell>
        <mxCell id="MeInf1mxyeWhPg3iEfPD-81" value="7" style="text;html=1;strokeColor=none;fillColor=none;align=center;verticalAlign=middle;whiteSpace=wrap;rounded=0;" vertex="1" parent="1">
          <mxGeometry x="580" y="210" width="40" height="20" as="geometry" />
        </mxCell>
        <mxCell id="MeInf1mxyeWhPg3iEfPD-82" value="0" style="text;html=1;strokeColor=none;fillColor=none;align=center;verticalAlign=middle;whiteSpace=wrap;rounded=0;" vertex="1" parent="1">
          <mxGeometry x="740" y="310" width="40" height="20" as="geometry" />
        </mxCell>
      </root>
    </mxGraphModel>
  </diagram>
</mxfile>
